<?xml version="1.0" encoding="UTF-8" standalone="no"?> <!-- Created with Vectornator for iOS (http://vectornator.io/) --><!DOCTYPE svg PUBLIC "-//W3C//DTD SVG 1.1//EN" "http://www.w3.org/Graphics/SVG/1.1/DTD/svg11.dtd">
<svg style="fill-rule:evenodd;clip-rule:evenodd;stroke-linecap:round;stroke-linejoin:round;" xmlns:vectornator="http://vectornator.io" xmlns:xlink="http://www.w3.org/1999/xlink" xmlns="http://www.w3.org/2000/svg" xml:space="preserve" version="1.1" viewBox="0 0 350 350">
<metadata>
<vectornator:setting key="DisplayWhiteBackground" value="0"/>
<vectornator:setting key="RulersVisible" value="1"/>
<vectornator:setting key="SnapToEdges" value="0"/>
<vectornator:setting key="Units" value="Pixels"/>
<vectornator:setting key="New" value="1"/>
<vectornator:setting key="DynamicGuides" value="0"/>
<vectornator:setting key="SnapToPoints" value="0"/>
<vectornator:setting key="CMYKEnabledKey" value="0"/>
<vectornator:setting key="SnapToGrid" value="0"/>
<vectornator:setting key="SnapToGuides" value="1"/>
<vectornator:setting key="GridSpacing" value="36"/>
</metadata>
<defs/>
<g id="Layer 1" vectornator:layerName="Layer 1">
<path d="M169.563+23.8484L176.622+23.8484C257.515+23.8484+323.093+91.0057+323.093+173.848L323.093+173.848C323.093+256.691+257.515+323.848+176.622+323.848L169.563+323.848C88.6697+323.848+23.0926+256.691+23.0926+173.848L23.0926+173.848C23.0926+91.0057+88.6697+23.8484+169.563+23.8484Z" opacity="1" fill="#00185a"/>
<path d="M143.147+295.845C143.147+295.845+150.77+248.371+146.139+249.156C135.478+250.964+108.197+259.208+93.0122+248.735C81.9947+241.137+94.3713+198.494+82.1691+196.364C69.9668+194.233+68.8422+195.915+64.5356+186.683C60.2289+177.452+83.1384+161.042+88.1629+149.325C93.1873+137.608+86.217+39.8931+171.274+43.7987C256.33+47.7044+270.098+85.1186+270.922+135.253C271.573+174.87+234.478+225.43+232.769+229.133C231.06+232.835+232.669+288.231+242.375+295.66C242.795+295.982+143.147+295.845+143.147+295.845Z" opacity="1" fill="#ffffff"/>
<path d="M144.828+294.693C144.828+294.693+151.668+246.343+147.234+247.095C137.025+248.826+108.654+257.759+94.1131+247.731C83.5634+240.455+95.3423+196.777+83.6581+194.737C71.9739+192.697+70.2556+195.757+66.1318+186.917C62.0079+178.078+85.0327+161.079+89.8438+149.859C94.6549+138.639+90.1875+41.4035+171.633+45.1433C182.646+45.649+192.45+46.7688+201.174+48.4462C243.919+56.6649+260.713+78.2684+266.537+106.593C268.315+115.239+269.071+124.511+269.23+134.22C269.854+172.155+232.366+224.331+230.729+227.877C229.093+231.422+230.458+287.397+239.752+294.511C240.154+294.819+144.828+294.693+144.828+294.693Z" fill-opacity="0.976562" fill="#ffffff" opacity="1"/>
<path d="M154.507+286.18C154.507+286.18+158.336+234.483+154.507+235.132C145.694+236.627+116.363+246.587+103.81+237.929C94.7018+231.648+105.939+189.328+95.8516+187.567C85.7645+185.806+84.2811+188.448+80.7209+180.816C77.1607+173.185+97.0384+158.509+101.192+148.823C105.345+139.137+101.489+55.1915+171.802+58.4202C242.116+61.6488+255.379+93.8766+256.06+135.321C256.598+168.071+224.234+213.116+222.821+216.177C221.408+219.238+219.908+280.038+227.932+286.18C228.28+286.446+154.507+286.18+154.507+286.18Z" opacity="1" fill="#efab00"/>
<path d="M164.669+264.214C164.669+264.214+166.519+228.448+163.744+220.432C162.429+216.633+132.946+230.534+123.662+224.131C116.926+219.486+125.618+185.766+118.158+184.463C110.697+183.161+109.6+185.114+106.967+179.47C104.334+173.826+119.035+162.972+122.107+155.808C125.179+148.644+122.327+86.5577+174.331+88.9457C226.335+91.3336+236.144+115.169+236.648+145.822C237.046+170.044+213.109+203.359+212.064+205.623C211.019+207.887+209.917+259.98+215.851+264.522C216.108+264.719+164.669+264.214+164.669+264.214Z" opacity="1" fill="#60997e"/>
<path d="M174.159+236.586C174.159+236.586+174.692+207.927+172.984+202.993C172.175+200.656+152.622+207.873+146.909+203.933C142.764+201.074+148.929+179.534+144.338+178.733C139.747+177.931+139.071+179.133+137.451+175.66C135.831+172.187+144.878+165.507+146.768+161.099C148.659+156.69+146.903+118.483+178.906+119.953C210.908+121.422+216.945+136.09+217.255+154.953C217.5+169.859+202.522+195.727+201.879+197.121C201.236+198.514+198.932+234.261+202.584+237.056C202.742+237.177+174.159+236.586+174.159+236.586Z" opacity="1" fill="#008ed3"/>
<path stroke="#000000" stroke-width="1" d="M272.944+129.538" fill="none" stroke-linecap="butt" opacity="1" stroke-linejoin="round"/>
</g>
</svg>
